<svg xmlns="http://www.w3.org/2000/svg" width="20" height="20" viewBox="0 0 20 20"><g><g><path fill="#bbb" d="M12.648 6.1c-.333-.006-.666 0-.994 0-.444 0-.708.227-.734.665-.021.35-.006.703-.016 1.057-.005.127.074.117.153.117.502 0 1.01.005 1.512-.006.148 0 .195.032.18.185a94.991 94.991 0 0 0-.17 1.766c-.01.132-.074.158-.19.158a44.956 44.956 0 0 0-1.194 0c-.286 0-.26-.042-.26.249 0 1.834-.005 3.662.006 5.497 0 .195-.048.243-.238.237-.682-.01-1.369-.01-2.05 0-.191.006-.223-.063-.223-.232.006-.925.006-1.845.006-2.77 0-.935-.006-1.87.005-2.806 0-.159-.042-.206-.201-.201-.29.01-.581 0-.877.005-.117.005-.164-.032-.159-.153a96.43 96.43 0 0 0 0-1.75c0-.11.032-.148.148-.148.296.006.597-.01.893.006.175.01.206-.053.206-.212-.01-.444-.01-.888 0-1.332.01-.544.159-1.051.481-1.49.407-.56.989-.814 1.66-.846.687-.032 1.38-.016 2.072-.021.095 0 .127.032.127.127a98.775 98.775 0 0 0 0 1.77c-.006.096-.043.127-.143.127zM10 0C4.477 0 0 4.477 0 10s4.477 10 10 10 10-4.477 10-10S15.523 0 10 0z"/></g></g></svg>