<svg xmlns="http://www.w3.org/2000/svg" width="20" height="20" viewBox="0 0 20 20"><g><g><path fill="#bbb" d="M18.518 0C19.333 0 20 .645 20 1.44v17.12c0 .796-.667 1.44-1.482 1.44H1.476C.66 20 0 19.356 0 18.56V1.44C0 .646.66 0 1.476 0zM5.933 7.5h-2.97v9.543h2.97zm.235-3.027a1.72 1.72 0 1 0-3.441.003 1.72 1.72 0 0 0 3.44-.003zm10.872 12.57v-5.238c0-2.57-.555-4.546-3.556-4.546-1.444 0-2.41.792-2.808 1.542h-.039V7.5H7.792v9.543h2.962v-4.722c0-1.245.236-2.45 1.78-2.45 1.521 0 1.543 1.425 1.543 2.531v4.641z"/></g></g></svg>