<svg xmlns="http://www.w3.org/2000/svg" width="31" height="22" viewBox="0 0 31 22"><g><g><path fill="#e8704d" d="M30.574 2.605l-7.94 8.086a.143.143 0 0 0 0 .207l5.557 5.918a.957.957 0 0 1-.679 1.638.967.967 0 0 1-.679-.28L21.3 12.277a.151.151 0 0 0-.214 0l-1.35 1.372a5.94 5.94 0 0 1-4.235 1.786c-1.63.007-3.18-.679-4.324-1.837l-1.298-1.321a.151.151 0 0 0-.214 0L4.13 18.173a.967.967 0 0 1-.68.28.957.957 0 0 1-.679-1.638l5.557-5.917a.157.157 0 0 0 0-.207L.381 2.605a.145.145 0 0 0-.25.103v16.18a2.368 2.368 0 0 0 2.36 2.362h25.973a2.368 2.368 0 0 0 2.361-2.361V2.708c0-.133-.162-.192-.25-.103z"/></g><g><path fill="#e8704d" d="M15.478 13.51a4.011 4.011 0 0 0 2.885-1.21L29.94.516A2.319 2.319 0 0 0 28.479 0H2.484c-.553 0-1.062.192-1.46.516L12.6 12.3a4.012 4.012 0 0 0 2.878 1.21z"/></g></g></svg>