<svg xmlns="http://www.w3.org/2000/svg" width="27" height="27" viewBox="0 0 27 27"><g><g><path fill="#e8704d" d="M10.765 19.21a8.398 8.398 0 0 1-5.977-2.476 8.394 8.394 0 0 1-2.475-5.97 8.37 8.37 0 0 1 2.475-5.969 8.398 8.398 0 0 1 5.977-2.475c2.257 0 4.38.88 5.976 2.475a8.394 8.394 0 0 1 2.475 5.97 8.37 8.37 0 0 1-2.475 5.97 8.398 8.398 0 0 1-5.976 2.474zm15.919 5.842l-7.51-7.58a10.738 10.738 0 0 0 2.356-6.714C21.53 4.816 16.713 0 10.765 0 4.816 0 0 4.823 0 10.765c0 5.941 4.816 10.758 10.765 10.758 2.573 0 4.929-.9 6.785-2.405l7.46 7.53c.225.24.535.36.837.36.288 0 .576-.106.794-.317a1.163 1.163 0 0 0 .043-1.639z"/></g></g></svg>