<svg xmlns="http://www.w3.org/2000/svg" width="20" height="20" viewBox="0 0 20 20"><g><g><path fill="#bbb" d="M14.67 7.605c.005.105.005.205.005.31 0 3.185-2.425 6.86-6.86 6.86-1.36 0-2.63-.4-3.695-1.085a4.847 4.847 0 0 0 3.57-.995 2.407 2.407 0 0 1-2.25-1.675 2.403 2.403 0 0 0 1.09-.04 2.41 2.41 0 0 1-1.935-2.365v-.03c.325.18.695.29 1.09.3a2.412 2.412 0 0 1-.75-3.215 6.84 6.84 0 0 0 4.97 2.52 2.411 2.411 0 0 1 4.105-2.2c.55-.11 1.065-.31 1.53-.585a2.41 2.41 0 0 1-1.06 1.335c.49-.06.95-.19 1.385-.38-.315.48-.72.905-1.195 1.245zM10 0C4.475 0 0 4.475 0 10s4.475 10 10 10 10-4.475 10-10S15.525 0 10 0z"/></g></g></svg>