<svg xmlns="http://www.w3.org/2000/svg" width="32" height="32" viewBox="0 0 32 32"><g><g><path fill="#e8704d" d="M23.725 21.172c-.364.902-2.009 1.725-2.735 1.763-.725.038-.746.562-4.7-1.156-3.953-1.718-6.331-5.895-6.519-6.164-.188-.268-1.531-2.183-1.459-4.11.073-1.928 1.128-2.837 1.505-3.215a1.514 1.514 0 0 1 1.071-.451c.311-.005.513-.01.744-.001.23.009.576-.048.875.748.3.796 1.015 2.753 1.107 2.952.092.2.148.431.007.687-.141.257-.214.418-.419.64-.206.22-.434.494-.618.663-.205.188-.42.392-.204.793.216.4.96 1.712 2.094 2.794 1.457 1.39 2.714 1.851 3.1 2.061.388.211.62.188.86-.065s1.03-1.107 1.308-1.489c.278-.382.538-.307.896-.163.357.144 2.26 1.164 2.648 1.374.388.21.647.319.74.485.092.168.063.952-.3 1.854zM16.035 0C7.496 0 .573 6.87.573 15.344c0 2.9.81 5.61 2.219 7.924L0 31.5l8.562-2.72a15.496 15.496 0 0 0 7.474 1.909c8.54 0 15.464-6.87 15.464-15.345C31.5 6.87 24.577 0 16.036 0z"/></g></g></svg>