<svg xmlns="http://www.w3.org/2000/svg" width="23" height="17" viewBox="0 0 23 17"><g><g><path fill="#bbb" d="M8.996 12.6V4.06l6.302 4.267zm13.108-8.915c0-1.955-1.438-3.529-3.216-3.529A157.428 157.428 0 0 0 11.517 0h-.782C8.23 0 5.77.043 3.364.156 1.59.156.152 1.738.152 3.694A63.678 63.678 0 0 0 0 8.336a66.421 66.421 0 0 0 .148 4.646c0 1.956 1.438 3.542 3.211 3.542 2.53.117 5.124.17 7.763.165 2.642.009 5.228-.043 7.762-.165 1.777 0 3.216-1.586 3.216-3.542.104-1.552.152-3.099.148-4.65a63.861 63.861 0 0 0-.144-4.647z"/></g></g></svg>